<?xml version="1.0" encoding="UTF-8"?>
<svg id="Layer_1" data-name="Layer 1" xmlns="http://www.w3.org/2000/svg" viewBox="0 0 600 452">
  <defs>
    <style>
      .cls-1 {
        fill: #004600;
      }

      .cls-2 {
        fill: #002b34;
      }

      .cls-3, .cls-4, .cls-5 {
        fill: #015700;
      }

      .cls-6 {
        fill: #ff4929;
      }

      .cls-7 {
        fill: #ffad97;
      }

      .cls-8 {
        fill: #fff;
      }

      .cls-9 {
        fill: #ffbb01;
      }

      .cls-10 {
        fill: #f22d10;
      }

      .cls-11 {
        fill: #ff957c;
      }

      .cls-12 {
        fill: #83bb26;
      }

      .cls-13 {
        fill: #bfefa0;
      }

      .cls-14 {
        fill: #3e8e19;
      }

      .cls-15 {
        fill: #94c358;
      }

      .cls-16 {
        fill: #54a233;
      }

      .cls-17 {
        fill: #2b4047;
      }

      .cls-4, .cls-18 {
        opacity: .2;
      }

      .cls-19, .cls-5 {
        opacity: .4;
      }

      .cls-20 {
        opacity: .8;
      }
    </style>
  </defs>
  <path class="cls-12" d="M68.83,391.47c-30.05-.01-40.45-24.83-48.75-44.3-5.44-12.75-10.6-27.64-14-43.86-7.51-35.78-5.1-71.42,11.25-104.11,9.11-18.23,21.77-33.95,36.46-47.46,103.87-95.53,204.62-55.35,219.02-55.35,69.4,0,52.63-43.8,129.47-50.5,162.52-14.17,138.35,135.54,138.34,135.54,0,9.71-23.01,48.36,16.23,87.99,20.57,20.78,46.58,37.08,38.74,86.49-3.27,20.61-21.03,35.79-41.9,35.78l-484.85-.22Z"/>
  <path class="cls-4" d="M80,299.7l178.99,26.85,34.59-18.31s-21.13-55.9-35.09-64.38c-13.96-8.48-22.44,5.48-38.89,15.28-16.45,9.79-26.42,.68-44.37-24.91-17.95-25.59-27.92-7.82-41.38-5.82-13.46,1.99-43.38-38.39-53.85-45.02-9.45-5.98-53.65,11.4-62.2,14.86-.16,.32-.32,.63-.48,.95-10.08,20.16-14.86,41.44-15.28,63.18l77.97,37.32Z"/>
  <path class="cls-5" d="M535.21,204.06c-3.52,1.45-7.74,2.82-10.77,1.87-5.67-1.79-16.22-26.22-25.82-44.56h0c-5.69-10.87-11.08-19.44-15.04-19.46-3.94-.02-10.83,10.39-17.55,22.23-8.43,14.83-16.59,31.9-18.41,33.56-3.26,2.99-14.75-15.06-22.6-14.31-8.37,.8-30.29,76.82-35.52,80.56-5.23,3.74-18.84-18.59-23.82-19.59-4.99-1-61.97,68.2-61.97,68.2,0,0,22.55,16.77,57.76,13.78,26.15-2.22,141.19-39.8,194.7-57.61-23.41-24.07-24.01-47.72-20.94-64.67Z"/>
  <g class="cls-19">
    <path class="cls-15" d="M361.46,301.26s14.21-25.72,16.45-21.61c2.24,4.11,8.6,6.16,11.59,1.77,2.99-4.39,39.34-43.77,40.24-33.99,.89,9.78-14.06,34.12-8.08,35.22,5.98,1.11,38.89-31.8,50.48-25.07,11.59,6.73,24.68-5.61,37.02-5.23,12.34,.37,11.97,28.83,11.97,28.83l-99.84,30.62-47.11,2.24-22.43-2.62,9.72-10.17Z"/>
  </g>
  <path class="cls-16" d="M556.83,269.42c-4.66-4.7-8.44-9.4-11.48-14.03-5.91,2.92-14.57,3.29-26.86,2.93-16.95-.5-25.18,17.7-32.41,21.44-7.23,3.74-17.7,0-35.15,1.67-17.45,1.67-23.93,15.78-38.89,16.28-14.96,.5-26.93,12.39-26.93,12.39,14.76,.81,146.32-25.89,179.88-32.77-2.76-2.62-5.51-5.23-8.17-7.92Z"/>
  <path class="cls-15" d="M2.39,254.4l238.06,40.63c-.13-.03-2.36-.68-4.9-4.3-2.62-3.73-11.47-7.98-27.42-7.73-15.95,.25-34.4-16.04-43.71-23.51-9.31-7.48-33.07-4.82-44.21-4.16-11.13,.67-22.1-3.49-29.42-9.31-7.31-5.82-16.13-4.88-25.85-6-9.72-1.12-8.6-9.35-20.94-14.48-10.8-4.49-31.67-1.12-36.72-.21-2.62,9.53-4.23,19.24-4.91,29.06Z"/>
  <path class="cls-14" d="M68.83,391.69h484.85c20.87,.01,38.63-15.17,41.9-35.78,6.81-42.97-11.96-60.9-30.5-78.51,0,0-.16-.15-.24-.23-38.73-.31-104.92,15.92-157.8,28.98-63.57,15.71-150.78-3.61-245.32-33.66C88.75,249.3,27.28,247.2,3.03,247.46c-2.11,18.31-.9,37.06,3.04,55.85,3.4,16.22,8.57,31.11,14,43.86,8.31,19.47,18.7,44.51,48.75,44.52Z"/>
  <path class="cls-13" d="M296.41,140.8s7.8-14.36,26.45-12.76c0,0,27.07-23.94,55.94-3.19,0,0,30.69-5.14,53.42,4.45,15.15,6.39,20.16,13.1,20.16,13.1l-155.96-1.6Z"/>
  <path class="cls-13" d="M389.56,115.03s5.07-12.25,17.19-10.89c0,0,17.6-20.42,36.37-2.72,0,0,19.95-4.39,34.73,3.8,9.85,5.46,13.11,11.18,13.11,11.18l-101.4-1.36Z"/>
  <path class="cls-13" d="M125.08,192.54s6.97-14.14,23.65-12.57c0,0,24.21-23.57,50.04-3.14,0,0,27.45-5.06,47.78,4.38,13.55,6.3,18.03,12.9,18.03,12.9l-139.49-1.57Z"/>
  <path class="cls-13" d="M109.53,149.42s4.41-9.46,14.94-8.41c0,0,15.3-15.77,31.61-2.1,0,0,17.34-3.39,30.18,2.93,8.56,4.21,11.39,8.63,11.39,8.63l-88.13-1.05Z"/>
  <g class="cls-18">
    <path class="cls-12" d="M247.17,299.79s-92.79-10.54-130.35-24.17c-37.56-13.63-40.29-9.62-31.2-2.4,9.09,7.22,61.53,24.28,39.8,26.22-21.73,1.94-60.84-3.76-75.57,11.32-14.74,15.08-37.89,28.64,0,31.57,37.89,2.93,148.54-17.86,148.54-17.86l48.78-24.67Z"/>
  </g>
  <g class="cls-20">
    <path class="cls-13" d="M498.63,161.36h0s-8.64-6.74-10.63-8.77c-1.99-2.03-4.49,2.86-5.98,4.96-1.5,2.09-1.66-4.42-1.66-6.41s-14.32,13.01-14.32,13.01h0c6.72-11.84,13.61-22.25,17.55-22.23,3.96,.02,9.35,8.59,15.04,19.45Z"/>
  </g>
  <path class="cls-13" d="M412.13,206.6s10.22-27.06,15.53-26.22c5.32,.83,12.59,13.1,12.59,13.1,0,0-7.39-6.33-8.76-4.21-1.37,2.12-1.62,6.3-3.99,4.21-2.37-2.09-3.86-2.39-5.11,0-1.25,2.39-10.26,13.12-10.26,13.12Z"/>
  <path class="cls-9" d="M571.2,283.3c-34.55,4.8-116.12,17.01-128.25,26.83-15.45,12.51,27.93,13.53,56.84,11.52,28.92-2,67.8-7,58.33,1.98-9.47,8.98-18.45,15.29,1.99,16.62,9.78,.64,25.93,1.23,36.83,1.68,.95-28.99-11.62-44.73-25.75-58.63Z"/>
  <path class="cls-9" d="M54.85,273.78c9.5,0,20.16-.25,17.17-2.74-2.99-2.49-17.7-2.99-24.68-7.48-6.98-4.49-13.43-1.1-22.4-5.31-7.59-3.56-19.32-1.1-22.77-.26-.44,9.42-.05,18.93,1.1,28.49,2.65-.21,11.08-.82,24.12-1.23,15.95-.5,11.97-4.99,7.28-7.98-4.68-2.99,10.67-3.49,20.17-3.49Z"/>
  <path class="cls-9" d="M358.35,391.69c-63.44-53.97-229.92-42.78-209.09-53.15,21.48-10.69,91.96,3.99,123.66,1.31,31.7-2.68,12.93-11.45,12.93-11.45-53.55-20.44-212.28-13.88-276.11-10.3,3,10.52,6.6,20.3,10.34,29.06,8.31,19.47,18.7,44.51,48.75,44.52H358.35Z"/>
  <g>
    <g>
      <path class="cls-3" d="M26.7,314.55s6.01-25.59,13.31-25.59-6.66,29.06-6.66,29.06l-6.65-3.47Z"/>
      <path class="cls-3" d="M39.3,315.56s12.54-16.05,20.01-12.07c7.47,3.98-17.18,15.83-17.18,15.83l-2.83-3.76Z"/>
      <path class="cls-3" d="M105.74,374.51c0-1.45-.86-22.84,9.45-24,10.3-1.16-9.45,24-9.45,24Z"/>
      <path class="cls-3" d="M113.18,374.51s5.72-10.41,10.88-9.54c5.15,.87-10.88,9.54-10.88,9.54Z"/>
      <path class="cls-3" d="M102.02,369.71c.86-4.17,4.01-33.37-2.29-32.79-6.3,.58,2.29,32.79,2.29,32.79Z"/>
    </g>
    <path class="cls-3" d="M102.75,364.34c-9.55-2.83-19.53-4.19-24.7-7.21-16.09-9.39-1.29-43.04-50.69-45.2-6.8-.3-13.35,.25-19.02,1.09,3.23,12.47,7.39,23.99,11.72,34.15,8.31,19.47,18.7,44.51,48.75,44.52h65.48c-2.4-5.54-4.65-19.53-31.56-27.35Z"/>
  </g>
  <path class="cls-3" d="M145.67,321.15h-15.46c-.83-.71,.57-2.32,2.04-2.43,.64-.05,1.44,.09,2.36,.28,.21-2.85,1.43-15.68,6.01-15.17,5.15,.58,0,5.65-1.46,8.65-1.08,2.22-2.22,5.41-2.74,6.92,.42,.09,.85,.18,1.29,.26,.68-2.12,3.22-9.23,6.45-8.82,3.79,.49,2.27,3.34-.42,5.03-1.97,1.25-4.39,3.02-5.54,3.87,.97,.16,1.99,.27,3.02,.24,2.65-.06,3.94,.72,4.44,1.15Z"/>
  <path class="cls-3" d="M167.5,377.98h-9.99c-.54-.46,.37-1.5,1.32-1.57,.41-.03,.93,.06,1.53,.18,.14-1.84,.92-10.14,3.88-9.81,3.33,.37,0,3.65-.94,5.59-.7,1.44-1.43,3.5-1.77,4.47,.27,.06,.55,.12,.84,.17,.44-1.37,2.08-5.97,4.17-5.7,2.45,.31,1.47,2.16-.27,3.25-1.27,.81-2.84,1.95-3.58,2.5,.63,.1,1.29,.17,1.95,.16,1.71-.04,2.55,.47,2.87,.74Z"/>
  <g>
    <path class="cls-1" d="M260.1,185.22s19.36,1.92,25.19,.49c5.83-1.43,20.25-12.96,20.25-12.96l4.04,3s-10.67,19.91-18.5,22.76c-7.83,2.85-29.09,3.15-29.09,3.15l-1.88-16.43Z"/>
    <g>
      <path class="cls-2" d="M189.96,359.61s-3.83,3.58-3.07,6.11c.76,2.53,4.24,4.2,4.72,7.29,.48,3.09,2.37,4.77,4.05,4.76,1.69,0,8.04-.04,8.04-.04,0,0,1.23-2.18-1.77-2.82-3-.64-4.15-4.27-3.98-7.65,.17-3.38-.32-7.87-.32-7.87l-6.38-1.47-1.3,1.69Z"/>
      <path class="cls-2" d="M237.15,368.64s-.86,8.11,.83,8.95l21.76-.1s.03-2.58-3.44-3.12c-3.47-.55-9.57-2.58-10.62-7.17-1.05-4.59-8.52,1.44-8.52,1.44Z"/>
      <path class="cls-6" d="M254.87,254.04s-1.07,14.21-2.34,31.3c-1.72,23.21-3.77,51.72-3.97,57.12-.33,9.38-1.77,24.38-1.77,24.38,0,0-3.54,3.58-10.68,2.11,0,0-6.45-21.38-8.36-44.02-.03-.37-.06-.74-.09-1.12-1.79-23.05-4.63-71.6-4.63-71.6l31.83,1.83Z"/>
      <path class="cls-10" d="M254.87,254.04s-1.07,14.21-2.34,31.3l-24.77,39.59c-.03-.37-.06-.74-.09-1.12-1.79-23.05-4.63-71.6-4.63-71.6l31.83,1.83Z"/>
      <path class="cls-6" d="M249.67,255.75s-20.3,51.55-33.69,75.8c-13.39,24.25-17.58,31.01-17.58,31.01,0,0-7.75-3.06-8.46-5.16,0,0,4.95-46.71,13.94-58.13,5.08-6.45,10.99-25.78,11.24-32.53,.25-6.75,1.74-20.12,1.74-20.12l32.8,9.13Z"/>
    </g>
    <g>
      <path class="cls-7" d="M247.25,178.21s18.57,9.64,16.39,6.99c-.69-.85-.04-3.85,.38-4.86,.2-.48,.38-.94,.56-1.38,1.22-3.12,1.69-4.95,1.69-4.95l-4.81-6.36-3.26-4.31c-.4,1.84-.95,3.46-1.6,4.91-3.37,7.45-9.35,9.97-9.35,9.97Z"/>
      <path class="cls-11" d="M256.6,168.25s1.16,7.36,7.98,10.71c1.22-3.12,1.69-4.95,1.69-4.95l-4.81-6.36c-3.11-.01-4.86,.6-4.86,.6Z"/>
    </g>
    <path class="cls-3" d="M213.79,256.56c5.92,6.57,44.58,11.47,43.51,6.54-.41-1.88-1.06-5.22-1.23-9.83-.04-1.08-.05-2.23-.03-3.45,.08-4.54,.67-10.01,2.23-16.32,.73-2.97,1.69-6.12,2.91-9.44,.29-.78,.58-1.57,.9-2.36,1.6-4.03,2.86-8.25,3.72-12.32,1.65-7.83,1.79-15.13-.11-19.66,0-.02-1.85-4.8-1.86-4.82-8.29-2.63-11.46-10.51-11.46-10.51,0,0-25.9,7.14-36.37,44.62,0,0-7.35,31.82-2.2,37.54Z"/>
    <path class="cls-1" d="M241.62,200.98s2.54,21.73,16.64,32.52c.73-2.97,1.69-6.12,2.91-9.44-1.53-5.14-3.27-9.35-4.83-11.15-6.33-7.31-14.72-11.93-14.72-11.93Z"/>
    <g>
      <path class="cls-7" d="M269.66,175.55s-13.42-.65-12.88-9c.53-8.35-.84-14.06,7.75-13.99,8.59,.06,10.05,3.35,10.55,6.18,.5,2.83-1.91,16.76-5.41,16.81Z"/>
      <path class="cls-2" d="M250.5,153.48c-.14-.14-.44-.23-1.09-.21,0,0,.49-.37,1.18-.44,.06-.92,.41-2.58,1.92-3.1,0,0-.79,.52-.82,1.5,1.64-2.02,5.37-3.69,16.08-3.71,14.11-.03,10.24,9.47,8.51,10.7-1.73,1.24-6.54-1.37-9.9-.82-3.36,.55-3.59,5.57-4.69,6.34-1.09,.78-.74-.47-2.35-1.05-1.61-.59-1.54,2.04-.96,3.7,.59,1.66-1.36,4.08-1.36,4.08l-2.35-2.18c-2.35-2.18-5.2-12-4.39-14.2,.07-.19,.14-.39,.21-.59Z"/>
      <path class="cls-8" d="M267.55,170.58s.43,1.18,.98,1.42c.55,.24,2.35,.38,2.7,.15,.35-.23,.95-1.14,.95-1.14,0,0-2.88-.79-4.63-.44Z"/>
    </g>
    <g>
      <rect class="cls-17" x="325.07" y="161.25" width="3.07" height="16.5" transform="translate(653.94 337.56) rotate(179.75)"/>
      <rect class="cls-2" x="311.77" y="161.55" width="13.3" height="15.77" transform="translate(637.59 337.45) rotate(179.74)"/>
      <rect class="cls-2" x="298.49" y="161.98" width="13.3" height="15.04" transform="translate(611.04 337.62) rotate(179.74)"/>
      <rect class="cls-2" x="285.19" y="164.06" width="13.3" height="10.99" transform="translate(584.44 337.8) rotate(179.74)"/>
      <path class="cls-17" d="M276.29,181.68l12.69-.06-.1-22.26-16.4,.07,.08,18.55c0,2.05,1.68,3.71,3.73,3.7Z"/>
      <rect class="cls-17" x="270.99" y="161.44" width="1.52" height="5.42" transform="translate(544.2 327.13) rotate(179.75)"/>
      <rect class="cls-17" x="270.23" y="161.09" width="1.52" height="6.13" transform="translate(542.68 327.13) rotate(179.75)"/>
      <rect class="cls-17" x="279.1" y="156.57" width="2.9" height="2.83" transform="translate(561.81 314.72) rotate(179.74)"/>
      <rect class="cls-17" x="275.39" y="153.75" width="10.54" height="4.23" transform="translate(562.02 310.48) rotate(179.74)"/>
    </g>
    <path class="cls-7" d="M277.01,186.57s1.9-7.15,2.54-8.18c.64-1.04,4.19-3.97,4.52-3.85,.33,.11,.48,.42,.19,1.09-.3,.67-1.7,2.66-1.37,2.67,.33,0,4.78-5.52,6.05-4.93,1.27,.58,1.8,5.17,.46,8.1-1.34,2.93-7.6,6.79-7.89,7.25-2.5,3.89-4.49-2.13-4.49-2.13Z"/>
    <path class="cls-3" d="M276.57,185.48s5.44,2,4.91,5.27c-.2,1.21-11.14,37.6-17.57,38.03-6.43,.43-27.03-29.19-25.66-37.44,1.37-8.25,10.8-12.11,14.23-10.32,3.43,1.79,7.2,25.86,8.61,25.45,1.41-.41,15.48-21,15.48-21Z"/>
    <path class="cls-7" d="M315.68,159.38s4.34,3.1,2.63,3.91c-1.71,.81-5.35,.8-7-.79-1.65-1.59,1.25-3.71,4.37-3.12Z"/>
  </g>
  <g>
    <path class="cls-3" d="M376.97,342.01c2.19,.97,10.13,.48,10.41-.14,.28-.62-4.72-6.82-6.91-7.78-2.19-.97-4.75,.03-5.71,2.21-.97,2.19,.03,4.75,2.21,5.71Z"/>
    <path class="cls-3" d="M396.83,346.4c-1.31,2-2.11,9.92-1.54,10.29,.57,.37,7.49-3.56,8.8-5.56,1.31-2,.74-4.69-1.26-6-2-1.31-4.69-.74-6,1.26Z"/>
    <path class="cls-3" d="M385.69,361.59c2.26,.8,10.14-.29,10.37-.93,.23-.64-5.22-6.44-7.48-7.24-2.26-.8-4.73,.39-5.53,2.64-.8,2.26,.39,4.73,2.64,5.53Z"/>
    <path class="cls-3" d="M396.99,369.62c0-.18-.33-18.16-9.88-27.73l.22-.22c9.64,9.66,9.96,27.76,9.97,27.94h-.3Z"/>
  </g>
  <g>
    <path class="cls-3" d="M411.71,370.16l-.42-.07c-1.64-21.21-8.12-36.43-8.21-36.64l.38-.16c.09,.21,6.62,15.53,8.24,36.87Z"/>
    <g>
      <path class="cls-9" d="M398.69,331.32c.8,.9,4.54,2.36,4.8,2.13,.26-.23-.72-4.12-1.52-5.03-.8-.9-2.18-.99-3.08-.19-.9,.8-.99,2.18-.19,3.09Z"/>
      <path class="cls-9" d="M404.42,328.16c-.72,.97-1.38,4.93-1.1,5.13,.28,.21,3.88-1.55,4.61-2.52,.72-.97,.52-2.34-.45-3.06-.97-.72-2.34-.52-3.06,.45Z"/>
      <path class="cls-9" d="M408.72,332.37c-1.16-.32-5.09,.52-5.18,.85-.09,.33,2.87,3.05,4.03,3.36,1.16,.32,2.37-.37,2.68-1.53,.32-1.16-.37-2.37-1.53-2.68Z"/>
      <path class="cls-9" d="M406.07,337.62c-.12-1.2-2.29-4.57-2.63-4.54s-1.83,3.76-1.72,4.96c.12,1.2,1.18,2.08,2.39,1.97,1.2-.12,2.08-1.18,1.96-2.39Z"/>
      <path class="cls-9" d="M400.12,337.36c1.07-.56,3.37-3.85,3.21-4.15-.16-.3-4.17-.28-5.24,.28-1.07,.56-1.48,1.88-.92,2.95,.56,1.07,1.88,1.48,2.95,.92Z"/>
      <path class="cls-3" d="M402.62,333.1c.06-.39,.43-.66,.82-.6,.39,.06,.66,.43,.6,.82-.06,.39-.43,.66-.82,.6-.39-.06-.66-.43-.6-.82Z"/>
    </g>
    <path class="cls-3" d="M411.59,348.47c-1.19,1.46-2.47,7.59-2.05,7.93,.42,.34,6.15-2.17,7.34-3.63,1.19-1.46,.97-3.61-.49-4.8-1.46-1.19-3.61-.97-4.8,.49Z"/>
  </g>
  <path class="cls-3" d="M512.28,391.69l-79.69-.06h-17.43c2.55-2.08,5.75-4.39,5.27-7.1-1.07-5.99-45.3-8.23-27.55-15.86,1.23-.53,2.55-1.01,3.96-1.46,.1-.03,.2-.06,.3-.09,4.05-1.26,8.72-2.18,13.56-2.86,.13-.02,.27-.04,.41-.06,17.27-2.37,36.56-1.66,37.51-1.63,.02,0,.04,0,.04,0,6.48,.5,56.34-2.99,62.32,5.98,4.02,6.03,2.62,16.9,1.31,23.12Z"/>
  <path class="cls-6" d="M267.78,193.16c-2.01,0-4.05-1.72-6.09-5.12-5.09-8.5-9.79-13.07-9.84-13.11-.29-.28-.3-.75-.02-1.04,.28-.29,.74-.3,1.04-.02,.2,.19,4.88,4.74,10.08,13.41,1.31,2.19,3.27,4.72,5.2,4.38,1.57-.28,3.2-2.47,4.58-6.18,1.11-2.99,1.69-5.93,1.69-5.96,.08-.4,.46-.66,.86-.58,.4,.08,.66,.46,.58,.86-.24,1.27-2.53,12.43-7.46,13.3-.2,.04-.41,.05-.62,.05Z"/>
</svg>