<?xml version="1.0" encoding="UTF-8"?>
<svg xmlns="http://www.w3.org/2000/svg" xmlns:xlink="http://www.w3.org/1999/xlink" viewBox="0 0 380 83">
  <defs>
    <style>
      .cls-1 {
        fill: url(#linear-gradient);
      }

      .cls-2 {
        letter-spacing: .03em;
      }

      .cls-3 {
        font-family: Inter-Medium, Inter;
        font-size: 60px;
        font-weight: 500;
      }

      .cls-4 {
        letter-spacing: -.02em;
      }

      .cls-5 {
        letter-spacing: 0em;
      }

      .cls-6 {
        letter-spacing: .01em;
      }
    </style>
    <linearGradient id="linear-gradient" x1="10.01" y1="75.69" x2="86.74" y2="-10.92" gradientUnits="userSpaceOnUse">
      <stop offset="0" stop-color="#81cf4e"/>
      <stop offset="1" stop-color="#d4e271"/>
    </linearGradient>
  </defs>
  <g id="Layer_1" data-name="Layer 1">
    <path class="cls-1" d="M7.63,19.71c0-4.84,3.94-8.78,8.78-8.78,.3,0,.61,.02,.9,.05,5.06,.46,7.14,4.67,10.55,4.67s5.5-4.21,10.55-4.67c.3-.03,.6-.05,.9-.05,4.84,0,8.78,3.94,8.78,8.78s-3.94,8.78-8.78,8.78h0c-5.73,0-7.85-4.72-11.45-4.72s-5.73,4.72-11.45,4.72h0c-4.84,0-8.78-3.94-8.78-8.78Zm31.68,14.13c-4.84,0-8.78,3.94-8.78,8.78s3.94,8.78,8.78,8.78,8.78-3.94,8.78-8.78-3.94-8.78-8.78-8.78Zm22.91-5.35c4.84,0,8.78-3.94,8.78-8.78s-3.94-8.78-8.78-8.78-8.78,3.94-8.78,8.78,3.94,8.78,8.78,8.78Zm0,28.26h0c-.16,0-.3,.02-.45,.02-.15,0-.3,0-.45,.02-5.06,.46-7.14,4.67-10.55,4.67s-5.5-4.21-10.55-4.67c-.15-.02-.3-.02-.45-.02-.15,0-.29-.02-.45-.02h0c-.3,0-.61,.02-.9,.05-5.06,.46-7.14,4.67-10.55,4.67-1.82,0-3.27-1.21-4.99-2.4-1.19-1.72-2.4-3.17-2.4-4.99,0-3.41,4.21-5.5,4.67-10.55,.01-.15,.02-.3,.02-.45,0-.15,.02-.3,.02-.45h0c0-4.84-3.94-8.78-8.78-8.78s-8.78,3.94-8.78,8.78h0c0,.16,.02,.3,.02,.45,0,.15,0,.3,.02,.45,.46,5.06,4.67,7.14,4.67,10.55s-4.21,5.5-4.67,10.55c-.02,.15-.02,.3-.02,.45,0,.15-.02,.29-.02,.45h0c0,4.84,3.94,8.78,8.78,8.78h0c5.73,0,7.85-4.72,11.45-4.72s5.73,4.72,11.45,4.72h0c.16,0,.3-.02,.45-.02,.15,0,.3,0,.45-.02,5.06-.46,7.14-4.67,10.55-4.67s5.5,4.21,10.55,4.67c.15,.02,.3,.02,.45,.02,.15,0,.29,.02,.45,.02h0c4.84,0,8.78-3.94,8.78-8.78s-3.94-8.78-8.78-8.78Zm0-22.91c-4.84,0-8.78,3.94-8.78,8.78s3.94,8.78,8.78,8.78,8.78-3.94,8.78-8.78-3.94-8.78-8.78-8.78Z"/>
  </g>
  <g id="Layer_2" data-name="Layer 2">
    <text class="cls-3" transform="translate(91.67 64.33)"><tspan x="0" y="0">83</tspan><tspan class="cls-4" x="76.53" y="0">8</tspan><tspan class="cls-5" x="113.1" y="0">.Ea</tspan><tspan class="cls-2" x="200.41" y="0">r</tspan><tspan class="cls-6" x="225.38" y="0">t</tspan><tspan x="248.37" y="0">h</tspan></text>
  </g>
</svg>